<svg xmlns="http://www.w3.org/2000/svg" width="34.993" height="23.338" viewBox="0 0 34.993 23.338">
  <path id="Icon_ionic-ios-arrow-round-back" data-name="Icon ionic-ios-arrow-round-back" d="M20.559,11.7a1.588,1.588,0,0,1,.012,2.236l-7.378,7.4H41.307a1.58,1.58,0,0,1,0,3.16H13.194l7.39,7.4a1.6,1.6,0,0,1-.012,2.236,1.574,1.574,0,0,1-2.224-.012L8.332,24.035h0a1.774,1.774,0,0,1-.328-.5,1.508,1.508,0,0,1-.122-.608,1.584,1.584,0,0,1,.45-1.106L18.347,11.735A1.548,1.548,0,0,1,20.559,11.7Z" transform="translate(-7.882 -11.252)"/>
</svg>
