<svg version="1.2" xmlns="http://www.w3.org/2000/svg" viewBox="0 0 53 66" width="53" height="66">
	<g id="card-scheme">
		<path id="path0" fillRule="evenodd" fill="#fff" d="m42.2 0.2c2.5 0.7 4 2.9 4 5.6v0.8h0.9c2.5 0 4.7 1.5 5.4 3.8 0.2 0.8 0.2 1.3 0.2 25.9v25l-0.3 0.9c-0.5 1.5-1.4 2.5-2.9 3.2l-0.8 0.4h-18.7c-14.2 0.1-18.9 0-19.3-0.1-2.5-0.7-4.1-2.8-4.1-5.6v-0.8h-1c-2.5 0-4.6-1.5-5.3-3.8-0.3-0.8-0.3-1.3-0.3-25.9v-25.1l0.3-0.8q1-2.7 3.6-3.5c0.8-0.3 37.5-0.3 38.3 0zm-11.5 2.1h-12.9-13l-0.6 0.3c-0.8 0.4-1.3 0.9-1.6 1.7-0.3 0.5-0.3 0.7-0.3 25.4v24.8l0.3 0.7c0.4 0.7 0.9 1.2 1.7 1.6 0.5 0.2 1.3 0.2 18.9 0.2l18.4-0.1 0.6-0.3c0.7-0.4 1.2-1.1 1.5-1.8 0.3-0.8 0.3-49.5 0-50.3-0.5-1.4-1.7-2.2-3.2-2.2h-0.9v4c0 4.5 0 4.6-1 4.7-0.5 0.1-0.6 0.1-2-1.3l-1.4-1.5-1.4 1.4c-1.4 1.4-1.8 1.7-2.4 1.3-0.6-0.3-0.7-0.3-0.7-4.6zm6.6 0h-4.2v4.7l0.6-0.6c1.2-1.2 1.6-1.2 2.8-0.1l0.8 0.7zm9.7 6.6h-0.8v22.7c0 19.1-0.1 22.8-0.2 23.5-0.5 1.9-1.8 3.4-3.7 3.9-0.7 0.3-1.7 0.3-17.1 0.3h-16.3v0.7c0 1.5 0.7 2.7 1.8 3.2l0.7 0.3h18.3c18 0 18.2 0 18.8-0.2 0.8-0.4 1.3-0.9 1.6-1.6l0.3-0.7v-24.8-24.8l-0.3-0.7c-0.4-0.7-0.9-1.2-1.7-1.6-0.3-0.2-0.8-0.2-1.4-0.2zm-28 0.1l0.8 0.8 0.8 0.9-1.5 1.5-1.5 1.5v3.2c0 3.3 0 3.3-0.3 3.6l-0.3 0.4h-4.5c-4.9 0.1-5.2 0-5.6-0.4l-0.3-0.3v-9.7l0.6-0.7h4.9c4.9 0 4.9 0 5.2 0.3l0.3 0.3 0.7-0.7zm2.9 3h6.8v2.3h-6.8zm-6.6 0.1h-6.4v6.6h6.4v-2.7l-0.8 0.8c-1.2 1.2-1.5 1.1-3.3-0.6l-1.1-1.1 0.8-0.9 0.9-0.8 0.7 0.7 0.7 0.7 1.1-1.1c0.6-0.7 1-1.1 1-1.3zm6.6 4.4h11.2v2.3h-11.2zm-2.1 8.7c1 0.9 1 0.7-0.7 2.5l-1.5 1.4v6.5l-0.3 0.3-0.4 0.4h-4.7c-3.2 0-4.8-0.1-5-0.2-0.6-0.2-0.6-0.5-0.6-5.5v-4.7l0.3-0.3 0.3-0.4h9.8l0.6 0.6 0.7-0.7c0.8-0.8 0.6-0.8 1.5 0.1zm2.1 2.2h6.8v2.3h-6.8zm-6.6 0.1h-6.4v6.5h6.4v-2.5l-0.8 0.7c-1.2 1.2-1.5 1.1-3.1-0.5l-1.2-1.3 0.8-0.8 0.8-0.8 0.7 0.7 0.8 0.7 1-1q1-1.1 1-1.4zm6.6 4.3h11.2v2.3h-11.2zm-14.7 7.7h9.8l0.3 0.3 0.3 0.3v4.9c0 5.1 0 5.1-0.6 5.4-0.4 0.2-9.4 0.2-9.8 0-0.6-0.2-0.6-0.5-0.6-5.5v-4.7l0.3-0.3zm14.6 2.1h6.8v2.4h-6.8zm8.9 0h2.3v2.3h-2.3zm-15.4 0.1h-6.5v6.4h6.5zm6.5 4.3h11.2v2.3h-11.2z"/>
	</g>
</svg>