<svg version="1.2" xmlns="http://www.w3.org/2000/svg" viewBox="0 0 66 66" width="66" height="66">
	<g id="card-user">
		<path id="path0" fillRule="evenodd" fill="#fff" d="m43.9 1.9c3.3 1.1 9.2 4.5 9.6 5.4 0.7 1.9-0.9 2.6-2.7 1.2-14.1-10.1-33.4-6.6-43.1 7.8-7.9 11.8-6.3 28 3.8 38q1.2 1.2 1.3 1c3-10.1 10.3-15.9 20.1-15.9 9.8 0 17.1 5.8 20.1 15.9 0.1 0.2 2.2-1.8 3.4-3.3 7.6-9.4 8.9-22 3.4-32.8-1.2-2.4-1.3-2.7-1-3.3 0.5-1.2 1.8-0.9 2.7 0.6 7.4 12.7 5.2 29.4-5.4 39.9-17.3 17.1-46.6 10.1-54.4-12.9-1.9-5.6-2.2-12.6-0.8-18.5 3.3-13.5 14.5-23.2 28.7-24.9 3.9-0.4 10.1 0.3 14.3 1.8zm13.9 10c0 1.2-1.4 1.8-2.2 0.9-0.3-0.2-0.3-0.4-0.3-0.9 0-0.5 0-0.7 0.3-1 0.8-0.8 2.2-0.2 2.2 1zm-13.6 16.2c-2.4 9.2-14.4 11.8-20.3 4.4-5.3-6.5-2-16.4 6.1-18.5 8.5-2.2 16.3 5.6 14.2 14.1zm-17.5 3.4c6.3 6.4 17.1 0.3 14.8-8.5-0.8-3.1-3.5-5.8-6.6-6.4-8.8-1.9-14.6 8.5-8.2 14.9zm-11.3 24.8l-0.3 1.1 0.3 0.2c6.9 5.4 18.3 7.1 27.2 4 3.1-1.1 8-3.7 8-4.3 0-0.3-0.5-2.4-0.7-3.1-2.2-6.4-7.9-11.1-14.5-12-9.5-1.2-18.1 4.9-20 14.1z"/>
	</g>
</svg>