<svg version="1.2" xmlns="http://www.w3.org/2000/svg" viewBox="0 0 70 73" width="70" height="73">
	<g id="card-service">
		<path id="path0" fillRule="evenodd" fill="#fff" d="m45.8 2.1q0 2.5-1.8 1.9c-0.7-0.3-0.9-2.9-0.3-3.5 1.1-1.1 2.1-0.3 2.1 1.6zm-9 1.8c0.8 1.4 0.6 2.4-0.7 2.4-1.3 0-2.5-2.5-1.6-3.4 0.8-0.7 1.4-0.5 2.3 1zm18.2-0.7c0.4 1-0.9 3.1-1.8 3.1-1.6 0-1.6-1.7-0.1-3.3 0.6-0.6 1.7-0.5 1.9 0.2zm-6 7.7c1.2 2.4 1.1 2.4 3.9 2.8 3.7 0.5 5.1 1.8 4.9 4.5-0.1 1.3-0.4 1.7-2.3 3.7-2.1 2.1-2 1.8-1.5 4.5 0.6 3.4 0.1 4.9-1.9 5.9-1.5 0.7-2.4 0.6-5-0.8-2.8-1.4-2.3-1.4-4.7-0.1-2.9 1.5-4.1 1.6-5.7 0.6-1.7-1.1-2-2.3-1.5-5.6 0.5-2.8 0.5-2.7-1.4-4.5-2-1.8-2.3-2.5-2.3-4.1 0-2.5 1.2-3.6 4.8-4.1 3-0.5 2.7-0.3 4.1-3 1.1-2.3 1.6-2.9 2.8-3.3 2.4-0.9 4.1 0.2 5.8 3.5zm-18 0.8c-0.2 1-1.2 1.1-2.5 0.3q-1.9-1.1-0.9-2.2c0.9-1 3.7 0.6 3.4 1.9zm30.9-1.2c0 1.3-2.5 2.6-3.4 1.8-0.7-0.7-0.3-1.6 0.9-2.4 1.5-0.8 2.5-0.5 2.5 0.6zm-19.5 1.6c-1.5 3.1-1.9 3.4-5.4 3.9-3.9 0.6-4.2 1.4-1.4 4.2 2.5 2.6 2.6 2.9 2.1 6.4-0.5 2.5-0.4 2.8 0.4 3.4 0.6 0.4 1.1 0.3 3-0.7 3.2-1.7 3.6-1.7 6.9-0.1l2.3 1.2 0.5-0.2c1.1-0.5 1.2-1 0.8-3.5-0.6-3.4-0.4-4.1 1.9-6.3 2-2 2.2-2.4 1.6-3.4-0.3-0.6-0.7-0.7-2.8-1-3.5-0.5-3.9-0.8-5.4-3.9-0.7-1.3-1.2-2.1-1.4-2.3-1.2-0.7-1.9-0.2-3.1 2.3zm-14.1 6.8c0.8 0.4 0.5 1.9-0.4 2.2-2.2 0.5-4-0.8-2.8-2 0.4-0.4 2.6-0.5 3.2-0.2zm35.8 0.2c1.2 1.1-0.4 2.4-2.6 2-1-0.2-1.4-1.3-0.7-2 0.4-0.5 2.8-0.5 3.3 0zm5.8 19.3c-0.3 0.9-14.9 15.8-16.7 17-3.5 2.2-8.9 3.2-18.3 3.3h-5.7l-1 0.4c-1.4 0.4-2.4 1.1-3.6 2.2l-1 0.9 0.4 0.4c1.6 1.9 1.1 3.6-2.4 7-2.6 2.6-3 2.8-4.5 2.8-1.6 0.1-1.6 0.1-9.3-7.7-8.2-8.1-8.2-8.2-7.6-10.3 0.3-1.1 5.2-6.1 6.3-6.4 0.8-0.2 1.9-0.2 2.5 0.1l0.5 0.2 4.7-3.9c4.7-4 5.7-4.7 7.1-5.3 3.4-1.3 8-1.3 12.1 0.1 2 0.7 3 0.8 8.8 0.8 6.1 0 7.1 0.2 8.7 2l0.4 0.5 4.5-4.1c4.7-4.3 5.4-4.8 7-5.2 4.2-0.9 8 1.9 7.1 5.2zm-6.5-2.8c-1.2 0.3-1.2 0.3-7.8 6.3l-3.1 2.8v1.4c0 1.6-0.2 2.2-1.1 3-1.2 1-0.4 1-12.4 1h-10.9l-0.3-0.4c-0.3-0.5-0.3-1.3 0.1-1.7l0.3-0.3h10.4c8.9 0 10.5 0 10.9-0.2 1.4-0.7 0.5-3.5-1.6-4.7l-0.6-0.4-6-0.1c-6.5-0.1-6.1 0-9.2-1-3.9-1.2-7.7-1-10.5 0.4-1 0.6-10.2 7.9-10.1 8.2 0 0 2.4 2.4 5.2 5.3l5.2 5.3 1.2-1.1c2.7-2.6 4.4-3.1 10.4-3.1 8.4 0.1 13.7-0.6 17.2-2.4l1.5-0.7 7.6-7.6c9-8.9 8.7-8.5 6.6-9.6-1-0.5-2.2-0.7-3-0.4zm-58.4 16.8c-2.3 2.3-2.6 2.8-2.5 3.3 0.2 0.7 14.1 14.3 14.6 14.3 0.8 0 5.2-4.4 5.2-5.2 0-0.4-0.4-1-7-7.5-8.5-8.5-7.2-7.9-10.3-4.9z"/>
	</g>
</svg>