<svg xmlns="http://www.w3.org/2000/svg" width="65.152" height="65.158" viewBox="0 0 65.152 65.158">
  <path id="path0" d="M14.187,12.6a3.511,3.511,0,0,0-1.62,1.67c-.321.769-.321,60.465,0,61.234a3.511,3.511,0,0,0,1.62,1.67c.769.357,34.445.4,35.3.047,1.823-.761,1.921-1.142,1.925-7.485l0-5.322,9.662,0c13.045,0,12.035.6,12.035-7.18V52.477h.954a3.16,3.16,0,0,0,3.128-1.831c.385-.83.385-10.7,0-11.526a3.16,3.16,0,0,0-3.128-1.831h-.954l0-4.78c0-5.33-.014-5.4-.964-6.3s-.478-.854-11.1-.854H51.41l0-5.322c0-6.343-.1-6.725-1.925-7.485-.851-.355-34.526-.309-35.3.047m34.235,2.066c.654.228.819.758.819,2.621v1.565H14.526V17.308c0-1.83.146-2.351.73-2.606.567-.247,32.462-.286,33.165-.041m-17.352,1.2a1.12,1.12,0,0,0,.814,1.9.959.959,0,0,0,1.085-1.085.959.959,0,0,0-1.085-1.085,1.1,1.1,0,0,0-.814.271M49.24,23.186v2.17H32.968v-2.17H30.8V66.58h2.17V64.41H49.24v4.339H14.526V21.017H49.24v2.17m20.937,4.528a1.493,1.493,0,0,1,.76,1.526V29.7H32.968v-2.17H51.347c15.4,0,18.452.031,18.831.189m.76,6.857v2.707l-5.8.039-5.8.039-.951.377a7.678,7.678,0,0,0,.388,14.4l1.017.342h11.14V57.9H32.968V51.509l.415-.6a11.118,11.118,0,0,0,0-12.044l-.415-.6V31.865H70.937v2.707M31.477,49.56m43.039-9.912c.718.3.76.593.76,5.259,0,4.693-.044,4.975-.819,5.246-.567.2-12.535.208-13.89.012-6.113-.883-6.229-9.673-.14-10.556,1.469-.213,13.567-.18,14.089.038M59.75,41.886a3.358,3.358,0,0,0,.1,6.041,3.3,3.3,0,1,0-.1-6.041m2.1,2.319a.983.983,0,1,1-.678-.271,1.09,1.09,0,0,1,.678.271M70.937,60.55a1.517,1.517,0,0,1-.819,1.537c-.321.112-5.45.154-18.8.154H32.968v-2.17H70.937v.479m-41.988,11a3.693,3.693,0,0,0,0,3.072l.32.634H22.527c-8.559,0-8,.193-8-2.776V70.919H29.27l-.321.633m20.291.906c0,3,.582,2.8-7.978,2.8H34.5l.321-.633a3.842,3.842,0,0,0,0-3.073l-.321-.633H49.24v1.539m-16.679-.048a.959.959,0,1,1-1.356,0,.959.959,0,0,1,1.356,0" transform="translate(-12.326 -12.304)" fill="#0584f2" fillRule="evenodd"/>
</svg>
