<svg xmlns="http://www.w3.org/2000/svg" width="29.977" height="29.979" viewBox="0 0 29.977 29.979">
  <path id="Icon_ionic-ios-female" data-name="Icon ionic-ios-female" d="M4.355,33.361a.959.959,0,0,0,.692-.288l3.229-3.229,2.667,2.667a.971.971,0,0,0,.692.288.959.959,0,0,0,.692-.288.979.979,0,0,0,0-1.384L9.66,28.459l3.6-3.6a12.185,12.185,0,1,0-1.384-1.384l-3.6,3.6L5.609,24.408a.971.971,0,0,0-.692-.288.959.959,0,0,0-.692.288.979.979,0,0,0,0,1.384l2.667,2.667L3.663,31.688a.98.98,0,0,0,.692,1.672Zm9.58-25.027a10.224,10.224,0,1,1-2.991,7.23A10.175,10.175,0,0,1,13.935,8.334Z" transform="translate(-3.377 -3.382)" fill="#009dff"/>
</svg>
