<svg xmlns="http://www.w3.org/2000/svg" width="201.292" height="208.17" viewBox="0 0 201.292 208.17">
  <g id="list_vector" data-name="list vector" transform="translate(-417.21 -427.76)">
    <g id="Group_88" data-name="Group 88" transform="translate(417.21 427.76)">
      <g id="Group_87" data-name="Group 87" transform="translate(0 0)">
        <path id="Path_5420" data-name="Path 5420" d="M549.515,454.619V601.9A13.116,13.116,0,0,1,536.4,615.02H430.327A13.116,13.116,0,0,1,417.21,601.9V440.877a13.116,13.116,0,0,1,13.117-13.117H521.7a3.808,3.808,0,0,1,2.65,1.071L548.5,452.214a3.343,3.343,0,0,1,1.019,2.405Z" transform="translate(-417.21 -427.76)" fill="#9cd7ff"/>
        <path id="Path_5421" data-name="Path 5421" d="M1009.584,454.564h-12.95a14.245,14.245,0,0,1-14.247-13.741l-.458-13.063a3.435,3.435,0,0,1,2.387.965l24.293,23.522a3.232,3.232,0,0,1,.725,1.06A3.276,3.276,0,0,1,1009.584,454.564Z" transform="translate(-877.28 -427.76)" fill="#9cd7ff"/>
      </g>
    </g>
    <g id="Group_90" data-name="Group 90" transform="translate(428.099 474.053)">
      <g id="Group_89" data-name="Group 89" transform="translate(0 0)">
        <path id="Path_5422" data-name="Path 5422" d="M576.466,677.57H478.422a2.452,2.452,0,1,0,0,4.9h98.044a2.452,2.452,0,0,0,0-4.9Z" transform="translate(-475.97 -677.57)" fill="#0085f5"/>
        <path id="Path_5423" data-name="Path 5423" d="M560.634,756.93H478.642a2.672,2.672,0,1,0,0,5.344h81.992a2.672,2.672,0,1,0,0-5.344Z" transform="translate(-475.97 -742.224)" fill="#0085f5"/>
        <path id="Path_5424" data-name="Path 5424" d="M560.634,838.67H478.642a2.671,2.671,0,1,0,0,5.343h81.992a2.671,2.671,0,1,0,0-5.343Z" transform="translate(-475.97 -808.816)" fill="#0085f5"/>
        <path id="Path_5425" data-name="Path 5425" d="M529.185,920.95H478.642a2.671,2.671,0,1,0,0,5.343h50.542a2.671,2.671,0,0,0,0-5.343Z" transform="translate(-475.97 -875.848)" fill="#0085f5"/>
        <path id="Path_5426" data-name="Path 5426" d="M529.185,1002.69H478.642a2.671,2.671,0,1,0,0,5.343h50.542a2.671,2.671,0,0,0,0-5.343Z" transform="translate(-475.97 -942.441)" fill="#0085f5"/>
        <path id="Path_5427" data-name="Path 5427" d="M529.185,1084.43H478.642a2.672,2.672,0,0,0,0,5.344h50.542a2.672,2.672,0,0,0,0-5.344Z" transform="translate(-475.97 -1009.033)" fill="#0085f5"/>
        <path id="Path_5428" data-name="Path 5428" d="M576.466,1160.04H478.422a2.452,2.452,0,1,0,0,4.9h98.044a2.452,2.452,0,0,0,0-4.9Z" transform="translate(-475.97 -1070.632)" fill="#0085f5"/>
        <path id="Path_5429" data-name="Path 5429" d="M560.634,1239.4H478.642a2.672,2.672,0,0,0,0,5.344h81.992a2.672,2.672,0,0,0,0-5.344Z" transform="translate(-475.97 -1135.285)" fill="#0085f5"/>
        <path id="Path_5430" data-name="Path 5430" d="M580.665,1321.14H479.274c-1.823,0-3.3,1.2-3.3,2.672s1.479,2.67,3.3,2.67H580.663c1.825,0,3.3-1.2,3.3-2.67S582.488,1321.14,580.665,1321.14Z" transform="translate(-475.97 -1201.878)" fill="#0085f5"/>
      </g>
    </g>
    <g id="Group_91" data-name="Group 91" transform="translate(470.254 485.704)">
      <path id="Path_5431" data-name="Path 5431" d="M1203.435,1248.42l-5.645,5.645,13.315,13.315,5.645-5.646Z" transform="translate(-1106.182 -1154.284)" fill="#9cd7ff"/>
      <path id="Path_5432" data-name="Path 5432" d="M760.384,854.308a56.934,56.934,0,1,0-56.934-56.934A56.934,56.934,0,0,0,760.384,854.308Z" transform="translate(-703.45 -740.44)"/>
      <path id="Path_5433" data-name="Path 5433" d="M798.405,883.691a48.285,48.285,0,1,0-48.285-48.285A48.285,48.285,0,0,0,798.405,883.691Z" transform="translate(-741.471 -778.469)" fill="#9cd7ff"/>
      <path id="Path_5434" data-name="Path 5434" d="M1261.115,1308.783l0,0a7.707,7.707,0,0,0,0,10.9l29.911,29.912a7.7,7.7,0,0,0,10.9,0l0,0a7.7,7.7,0,0,0,0-10.9l-29.911-29.911A7.707,7.707,0,0,0,1261.115,1308.783Z" transform="translate(-1155.933 -1201.624)"/>
    </g>
  </g>
</svg>
