<svg version="1.2" xmlns="http://www.w3.org/2000/svg" viewBox="0 0 59 66" width="59" height="66">
	<title>scheme-eligibility-icon</title>
	<style>
		.s0 { fill: #000000 } 
	</style>
	<path id="path0" fillRule="evenodd" class="s0" d="m30.3 4.5l0.2 0.6h1.1c1.7 0 2.8 0.6 3.5 1.9l0.4 0.7h5c6.1 0 6.5 0.1 7.5 2l0.3 0.8v14.7 14.7l0.9 0.2c1.9 0.5 4.1 1.7 5.6 3.3 7.2 7.2 3.4 19.7-6.6 21.6-0.7 0.1-4.5 0.2-23.1 0.2h-22.2l-0.7-0.3c-0.9-0.5-1.4-0.9-1.8-1.8l-0.4-0.8v-25.9-25.9l0.3-0.6c0.4-0.9 0.9-1.4 1.8-1.9l0.7-0.3h10l0.4-0.7c0.7-1.3 1.8-1.9 3.5-1.9h1.2l0.1-0.6c0.5-1.8 2.1-3.5 4.1-4.2 3.4-1.1 7.4 0.9 8.2 4.2zm-9.9 1.9c-0.1 1.1-0.4 1.3-2.2 1.3-2.4 0-2.8 0.2-2.9 1.7l-0.1 0.8h17.9l-0.1-0.8c-0.1-1.5-0.4-1.7-2.9-1.7-1.8 0-2-0.2-2.2-1.6-0.2-1.4-1-2.5-2.1-3.1-2.4-1.1-5 0.5-5.4 3.4zm3.8-1.3c0.5 0 0.6 0.1 0.9 0.4 0.3 0.2 0.3 0.4 0.3 0.9q0 1.3-1.2 1.3c-1.2 0-1.8-1.4-1-2.2 0.3-0.3 0.5-0.4 1-0.4zm-11.5 5.1h-4.4c-4.7 0-5.1 0.1-5.5 0.6-0.2 0.4-0.4 49.8-0.1 50.8 0.3 1-1.3 0.9 18 1h17.3l-0.8-0.7c-1.7-1.5-3.2-4-3.7-6l-0.2-0.9h-19.9l-0.3-0.4c-0.3-0.2-0.4-0.4-0.4-0.9 0-0.5 0.1-0.7 0.4-0.9l0.3-0.4h19.7v-0.7c0-0.9 0.2-2.3 0.6-3.4 0.1-0.5 0.3-0.8 0.3-0.9 0 0-4.7 0-10.3 0h-10.3l-0.3-0.4c-0.5-0.5-0.5-1.4 0-1.9l0.3-0.3h11.1 11.1l0.6-0.8c1.8-2.3 5.3-4 8.4-4.2l1.2-0.1v-14q0-14-0.1-14.5c-0.3-0.9-0.3-0.9-5.5-1h-4.6v0.9c0 0.9 0 1-0.3 1.3l-0.4 0.3h-21.5l-0.3-0.3c-0.3-0.3-0.4-0.4-0.4-1.3zm-3.8 11.7c0.5 0 0.7 0.1 0.9 0.4 0.9 0.8 0.3 2.2-0.9 2.2-1.2 0-1.8-1.4-0.9-2.2 0.2-0.3 0.4-0.4 0.9-0.4zm4.5 0h26.6l0.4 0.4c0.2 0.2 0.3 0.4 0.3 0.9 0 0.5-0.1 0.7-0.3 1l-0.4 0.3h-26.6l-0.3-0.3c-0.3-0.3-0.4-0.5-0.4-1 0-0.5 0.1-0.7 0.4-0.9zm-4.5 7.6c0.4 0 0.6 0.1 0.9 0.3 0.8 0.9 0.3 2.3-0.9 2.3-1.2 0-1.8-1.4-1-2.3 0.3-0.2 0.5-0.3 1-0.3zm4.5 0h26.6l0.3 0.3c0.3 0.3 0.4 0.5 0.4 1 0 0.5-0.1 0.7-0.4 0.9l-0.3 0.4h-26.6l-0.4-0.4c-0.2-0.2-0.3-0.4-0.3-0.9 0-0.5 0.1-0.7 0.3-1zm-4.5 7.7c0.5 0 0.7 0 1 0.3 0.8 0.8 0.2 2.2-1 2.2-1.2 0-1.7-1.4-0.9-2.2 0.3-0.3 0.5-0.3 0.9-0.3zm4.5 0h26.7l0.3 0.3c0.3 0.3 0.3 0.5 0.3 1 0 0.4 0 0.6-0.3 0.9l-0.3 0.3h-26.7l-0.3-0.3c-0.3-0.3-0.3-0.5-0.3-0.9 0-0.5 0-0.7 0.3-1zm32.6 5.2c-3.3-0.4-7.6 2.2-9.2 5.7-4.7 9.6 6.7 18.8 15.2 12.3 7-5.3 3.7-17.1-4.9-17.9-0.5-0.1-1-0.1-1.1-0.1zm-37.1 2.4c0.5 0 0.7 0.1 0.9 0.4 0.9 0.8 0.3 2.2-0.9 2.2-1.2 0-1.8-1.4-0.9-2.2 0.2-0.3 0.4-0.4 0.9-0.4zm40 3.9h0.7c0.9 0 1.3 0.4 1.3 1.3v0.6l-2.9 2.9-2.8 2.8h-1.4l-1.5-1.6-1.6-1.5v-0.7c0-1.6 1.4-1.8 2.9-0.4l0.9 0.9 2.2-2.2zm-40 3.9c0.5 0 0.7 0 0.9 0.3 0.9 0.8 0.3 2.2-0.9 2.2-1.2 0-1.8-1.4-0.9-2.2 0.2-0.3 0.4-0.3 0.9-0.3z"/>
</svg>