<svg xmlns="http://www.w3.org/2000/svg" width="34.138" height="24.043" viewBox="0 0 34.138 24.043">
  <path id="Path_5480" data-name="Path 5480" d="M13.057,0a2.717,2.717,0,1,1-2.717,2.717A2.717,2.717,0,0,1,13.057,0ZM5.226,7.127A1.919,1.919,0,1,1,3.308,9.046,1.919,1.919,0,0,1,5.226,7.127ZM2.616,11.89a.857.857,0,0,1,.59-.347v0a13.062,13.062,0,0,1,3.979,0,.807.807,0,0,1,.612.327,16.977,16.977,0,0,1,1.8,3.112c.181.372.378.784.542,1.109a.8.8,0,1,1-1.436.72c-.257-.516-.412-.838-.553-1.129A20.332,20.332,0,0,0,7.2,13.851V22.98a.849.849,0,0,1-.863.827h0a.849.849,0,0,1-.863-.827V18.5H4.933v4.478a.849.849,0,0,1-.863.827h0a.849.849,0,0,1-.863-.827V14.131c-.356.6-.626,1.16-.968,1.865-.152.316-.319.66-.6,1.216A.864.864,0,1,1,.1,16.439c.175-.35.389-.793.581-1.2A18.125,18.125,0,0,1,2.616,11.89ZM28.928,4.345A1.919,1.919,0,1,1,27.01,6.264a1.919,1.919,0,0,1,1.919-1.919Zm1.958,4.529A.807.807,0,0,1,31.5,9.2a24.26,24.26,0,0,1,2.017,3.9c.181.375.378.784.542,1.112a.8.8,0,0,1-1.439.72c-.257-.514-.412-.835-.553-1.129-.35-.725-.72-1.648-1.171-2.506v.68l1.349,5.959H30.9v5a.849.849,0,0,1-.863.827h0a.849.849,0,0,1-.863-.827v-5h-.536v5a.849.849,0,0,1-.863.827h0a.849.849,0,0,1-.863-.827v-5H25.681l1.225-5.852v-.519c-.172.361-.308.722-.584,1.3-.152.316-.206.468-.485,1.021a.864.864,0,0,1-1.546-.773c.175-.35.277-.6.471-1a12.767,12.767,0,0,1,1.555-2.878.857.857,0,0,1,.59-.347V8.874a11.639,11.639,0,0,1,3.981,0ZM20.633,0a2.717,2.717,0,1,1-2.717,2.717A2.717,2.717,0,0,1,20.633,0Zm.372,18.93v3.947a1.216,1.216,0,0,0,1.256,1.163h0a1.214,1.214,0,0,0,1.256-1.163V18.93h1.792l-.886-4.2a1.4,1.4,0,0,1-.686-.8,1.388,1.388,0,0,1,.076-1.064c.054-.107.1-.209.15-.31l-.533-2.534V9.8c.367.6.663,1.174.976,1.806.1-.206.178-.4.254-.567a8.94,8.94,0,0,1,1.081-1.93,21.817,21.817,0,0,0-1.436-2.2,1.169,1.169,0,0,0-.889-.477,14.625,14.625,0,0,0-5.44,0v.008a1.154,1.154,0,0,0-.742.35A21.635,21.635,0,0,1,18.59,8.908c.4.711.739,1.416,1.146,2.26.13.271.268.559.4.835.152.313.288.59.381.776a1.594,1.594,0,0,1-2.85,1.428c-.161-.322-.892-1.823-1-2.049L16.2,18.933h1.69v3.947a1.216,1.216,0,0,0,1.256,1.163h0A1.214,1.214,0,0,0,20.4,22.881V18.93Zm-7.661-2.695v6.642A1.216,1.216,0,0,0,14.6,24.04h0a1.214,1.214,0,0,0,1.256-1.163V16.236h0V9.718a29.772,29.772,0,0,1,1.388,2.655c.206.426.432.894.807,1.642a1.169,1.169,0,0,0,2.091-1.047c-.237-.474-.525-1.069-.787-1.614a24.46,24.46,0,0,0-2.621-4.529,1.163,1.163,0,0,0-.883-.477c-.94-.223-5.66-.657-6.49.477a23.261,23.261,0,0,0-2.432,4.137c.11.014.217.028.324.045a1.344,1.344,0,0,1,.976.545c.229.313.426.6.6.866l.02-.042A27.219,27.219,0,0,1,10.4,9.447v5.976l.212.432a1.339,1.339,0,0,1,.073,1.019,1.31,1.31,0,0,1-.285.483v5.525a1.216,1.216,0,0,0,1.256,1.163h0a1.214,1.214,0,0,0,1.256-1.163V16.236Z" transform="translate(-0.005)" fill="#fff" fill-rule="evenodd"/>
</svg>
