<svg version="1.2" xmlns="http://www.w3.org/2000/svg" viewBox="0 0 68 67" width="68" height="67">
	<title>support-center-icon</title>
	<style>
		.s0 { fill: #000000 } 
	</style>
	<path id="Path 3" fillRule="evenodd" class="s0" d="m41.4 66.6c-1.1 0-2 0-2.5-0.1-2.2-0.3-3.8-1.9-4.1-3.9-0.2-1.6 0.3-3.8 2.6-4.9l0.8-0.4h7.5l0.9 0.4c0.9 0.5 1.9 1.4 2.1 2.1l0.3 0.7h3.2c6.4 0 8.9-2.3 8.9-8.3v-2.2h-0.7c-0.9 0-2.6-1.3-3.2-2.5-0.2-0.6-0.2-0.7-0.2-8.2v-7.6l0.3-0.7c0.6-1.1 1.8-2.1 2.9-2.3l0.9-0.2-0.1-1.3c-1.3-13.7-13.1-24.4-27.1-24.4q-2.7 0-5.3 0.6c-11.5 2.3-20.6 12.3-21.6 23.7l-0.1 1.4 0.8 0.2c1.2 0.2 2.4 1.2 3 2.3l0.3 0.7v8.8c0 7 0 7-1 8q0 0.1-0.1 0.2c-0.9 0.9-2 1.4-3.3 1.4-2.5 0-5.5-1.8-6.4-5-0.3-1.1-0.3-10.4 0-11.5 0.5-1.7 1.5-3.1 3-4l1.1-0.7v-1c0-0.4 0.1-1.4 0.2-2.1 1-6.8 4.3-13.1 9.3-17.7 4.9-4.7 11.4-7.5 18.2-7.9 0.6-0.1 1.6-0.1 1.7-0.2q0.3 0 0.7 0c2.7 0 8.1 1.1 10.9 2.3 5 2 9.7 5.8 13.1 10.6 3.5 4.7 5.3 10.1 5.3 15v1l1.1 0.6c1.5 1 2.6 2.4 3 4.1 0.2 0.8 0.3 10.3 0.1 11.3-0.4 1.5-1.9 3.6-3.2 4.2l-0.8 0.4v3c-0.2 4.4-1.2 6.8-3.8 8.7-2.3 1.7-3.1 1.9-7.3 2h-3.7l-0.4 0.9c-0.5 0.8-1.6 1.8-2.5 2.2-0.5 0.2-2.7 0.3-4.8 0.3zm-0.2-6.7q-2.1 0-2.5 0.2c-0.8 0.3-1.2 1-1.2 1.9 0.1 0.8 0.6 1.5 1.4 1.8 0.5 0.1 1.7 0.2 2.4 0.2 0 0 3.7 0 4.3-0.5 0.6-0.4 0.9-1 0.9-1.6-0.1-0.7-0.4-1.3-1-1.6-0.6-0.4-4.3-0.4-4.3-0.4zm20.2-28.6c-0.7 0-1.2 0.3-1.5 0.8-0.2 0.3-0.3 4.1-0.3 7.1 0 2.1 0 6.8 0.2 7.2 0.3 0.6 0.9 0.9 1.6 0.9 1.2 0 2.8-0.9 3.5-2.4 0.6-1.1 0.6-10.1 0-11.2-0.4-0.9-1.3-1.8-2.1-2.1q-0.7-0.3-1.4-0.3zm-54.9 0c-0.6 0-1.4 0.2-1.8 0.5-2 1.5-2 1.7-2 7.5 0 4.8 0 4.9 0.4 5.6 0.7 1.5 2.3 2.4 3.5 2.4 0.7 0 1.3-0.3 1.6-0.9 0.2-0.6 0.2-13.6 0-14.2-0.1-0.3-0.4-0.5-0.7-0.7-0.3-0.2-0.7-0.2-1-0.2zm20.6 19.3q-0.2 0-0.4 0c-1.9-0.2-2.9-0.9-2.9-4.5v-2.6h-0.9c-2.7 0-5.6-2.5-6.1-5.3-0.2-1.2-0.2-16.1 0.1-17.1 0.5-2.3 2.5-4.3 4.8-4.8 0.5-0.2 5.7-0.3 12.4-0.3 6.5 0 11.6 0.1 12.1 0.3 2.4 0.5 4.3 2.5 4.9 4.8 0.3 1.3 0.3 16.2 0 17.4-0.6 2.3-2.4 4.2-4.8 4.9-0.6 0.1-1.8 0.1-5.8 0.1h-5.1l-3.5 3.5c-3.3 3.1-3.8 3.6-4.8 3.6zm7-31.9c-1.9 0-11.4 0-12.1 0.3-1 0.3-2 1.4-2.3 2.4-0.4 1-0.4 15.7-0.1 16.7 0.7 1.8 1.9 2.6 4.4 2.7 1.4 0.1 2 0.1 2.2 0.5 0.3 0.5 0.3 1.5 0.3 3.5v3.7l4.2-4.1c1.7-1.8 3.1-3.2 3.4-3.5 0.6 0 2.7-0.1 5.8-0.1l5.9-0.1 0.7-0.4c0.9-0.5 1.6-1.3 1.9-2.2 0.3-1 0.3-15.7-0.1-16.7-0.3-1-1.3-2.1-2.3-2.4-0.8-0.3-10-0.3-11.9-0.3zm-9.1 13.2c-0.6-0.3-1.1-1-1.1-1.8 0-0.8 0.4-1.6 1.1-1.9q0.4-0.3 0.9-0.3c0.9 0 1.7 0.5 2 1.3 0.3 0.6 0.3 1.4-0.1 2-0.4 0.6-1.1 1-1.8 1q-0.5 0-1-0.3zm9 0.3c-1.3 0-1.9-1-2.1-1.7-0.1-0.8 0.1-1.9 1.2-2.4q0.4-0.2 0.8-0.2c0.7 0 1.2 0.3 1.6 0.7 0.6 0.6 0.8 1.5 0.4 2.3-0.3 0.8-1.1 1.3-1.9 1.3zm7.9-0.1c-1.2 0-1.9-0.9-2-1.7-0.2-0.7 0-1.8 1.1-2.3q0.5-0.2 1-0.2c1.1 0 2 0.8 2 2q0.1 1.1-0.4 1.6-0.6 0.6-1.7 0.6z"/>
</svg>