<svg xmlns="http://www.w3.org/2000/svg" width="50.167" height="48.17" viewBox="0 0 50.167 48.17">
  <g id="Group_197" data-name="Group 197" transform="translate(-939.564 -171.36) rotate(-30)">
    <path id="Icon_ionic-ios-male" data-name="Icon ionic-ios-male" d="M31.178,0H22.741a1.054,1.054,0,0,0,0,2.107h5.842L21.594,9.143a13.181,13.181,0,1,0,1.488,1.5l7.035-7V9.484a1.054,1.054,0,1,0,2.107,0V1.054A1.043,1.043,0,0,0,31.178,0ZM24.1,19.13A10.99,10.99,0,0,1,5.331,26.9,10.99,10.99,0,1,1,20.873,11.359,10.874,10.874,0,0,1,24.1,19.13Z" transform="translate(717.875 667.957) rotate(-90)" fill="#009dff"/>
    <path id="Icon_ionic-ios-female" data-name="Icon ionic-ios-female" d="M1.078,33.035a1.056,1.056,0,0,0,.763-.318L5.4,29.159,8.338,32.1a1.07,1.07,0,0,0,.763.318,1.056,1.056,0,0,0,.763-.318,1.079,1.079,0,0,0,0-1.525L6.924,27.634,10.9,23.662a13.428,13.428,0,1,0-1.525-1.525L5.4,26.109,2.46,23.17a1.07,1.07,0,0,0-.763-.318,1.056,1.056,0,0,0-.763.318,1.079,1.079,0,0,0,0,1.525l2.939,2.939L.316,31.192a1.08,1.08,0,0,0,.763,1.843ZM11.634,5.457A11.27,11.27,0,1,1,27.576,21.39,11.27,11.27,0,0,1,11.634,5.457Z" transform="translate(741.233 678.509) rotate(-135)" fill="#009dff"/>
    <path id="Icon_ionic-ios-male-2" data-name="Icon ionic-ios-male" d="M31.178,0H22.741a1.054,1.054,0,0,0,0,2.107h5.842L21.594,9.143a13.181,13.181,0,1,0,1.488,1.5l7.035-7V9.484a1.054,1.054,0,1,0,2.107,0V1.054A1.043,1.043,0,0,0,31.178,0ZM24.1,19.13A10.99,10.99,0,0,1,5.331,26.9,10.99,10.99,0,1,1,20.873,11.359,10.874,10.874,0,0,1,24.1,19.13Z" transform="translate(720.176 639.041) rotate(-13)" fill="#009dff"/>
    <path id="Path_5479" data-name="Path 5479" d="M6459.659,3326.98l6.458,3.742" transform="translate(-5716.678 -2688.369)" fill="none" stroke="#009dff" stroke-linecap="round" stroke-width="2"/>
  </g>
</svg>
