<svg width="32" height="33" viewBox="0 0 32 33" fill="none" xmlns="http://www.w3.org/2000/svg">
<path d="M15.9998 2.75C8.63984 2.75 2.6665 8.91 2.6665 16.5C2.6665 24.09 8.63984 30.25 15.9998 30.25C23.3598 30.25 29.3332 24.09 29.3332 16.5C29.3332 8.91 23.3598 2.75 15.9998 2.75ZM15.9998 6.875C18.2132 6.875 19.9998 8.7175 19.9998 11C19.9998 13.2825 18.2132 15.125 15.9998 15.125C13.7865 15.125 11.9998 13.2825 11.9998 11C11.9998 8.7175 13.7865 6.875 15.9998 6.875ZM15.9998 26.4C12.6665 26.4 9.71984 24.64 7.99984 21.9725C8.03984 19.2363 13.3332 17.7375 15.9998 17.7375C18.6532 17.7375 23.9598 19.2363 23.9998 21.9725C22.2798 24.64 19.3332 26.4 15.9998 26.4Z" fill="white"/>
</svg>
