<svg version="1.2" xmlns="http://www.w3.org/2000/svg" viewBox="0 0 43 43" width="43" height="43">
	<title>user-circle-icon</title>
	<style>
		.s0 { fill: #0584f2 } 
	</style>
	<path id="Icon awesome-user-circle" fillRule="evenodd" class="s0" d="m43 21.4c0 11.8-9.6 21.4-21.4 21.4-11.8 0-21.4-9.6-21.4-21.4 0-11.8 9.6-21.4 21.4-21.4 11.8 0 21.4 9.6 21.4 21.4zm-29-5.5c0 4.2 3.4 7.6 7.6 7.6 4.2 0 7.6-3.4 7.6-7.6 0-4.2-3.4-7.6-7.6-7.6-4.2 0-7.6 3.4-7.6 7.6zm20.2 16.2c-1.6-3.1-4.8-5.2-8.5-5.2q-0.3 0-0.6 0.1c-1.1 0.4-2.3 0.6-3.5 0.6-1.2 0-2.4-0.2-3.5-0.6q-0.3-0.1-0.6-0.1c-3.7 0-6.9 2.1-8.5 5.2 3 3.6 7.5 5.9 12.6 5.9 5.1 0 9.6-2.3 12.6-5.9z"/>
</svg>