<svg xmlns="http://www.w3.org/2000/svg" width="27.897" height="27.897" viewBox="0 0 27.897 27.897">
  <path id="Icon_metro-warning" data-name="Icon metro-warning" d="M16.519,4.455l11.69,23.3H4.829l11.69-23.3Zm0-2.527A2.016,2.016,0,0,0,14.86,3.144L2.953,26.876c-.912,1.622-.136,2.949,1.725,2.949H28.36c1.861,0,2.637-1.327,1.724-2.949h0L18.178,3.144a2.016,2.016,0,0,0-1.659-1.216Zm1.744,22.666a1.744,1.744,0,1,1-1.744-1.744A1.744,1.744,0,0,1,18.263,24.594Zm-1.744-3.487a1.744,1.744,0,0,1-1.744-1.744V14.133a1.744,1.744,0,0,1,3.487,0v5.231A1.744,1.744,0,0,1,16.519,21.107Z" transform="translate(-2.571 -1.928)"/>
</svg>
